<?xml version="1.0" encoding="utf-8"?>
<!-- Generator: Adobe Illustrator 16.0.0, SVG Export Plug-In . SVG Version: 6.00 Build 0)  -->
<!DOCTYPE svg PUBLIC "-//W3C//DTD SVG 1.1//EN" "http://www.w3.org/Graphics/SVG/1.1/DTD/svg11.dtd">
<svg version="1.1" id="Layer_1" xmlns="http://www.w3.org/2000/svg" xmlns:xlink="http://www.w3.org/1999/xlink" x="0px" y="0px"
	 width="134.5px" height="86px" viewBox="0 0 134.5 86" enable-background="new 0 0 134.5 86" xml:space="preserve">
<g>
	<path fill="#FFFFFF" d="M71.099,11.59c0.528-0.322,1.201-0.325,2.018-0.027c1.36,0.571,3.665,0.128,4.709-1.327
		c0.58-0.809,1.214-2.545-1.051-5.107c-0.313-0.356-0.858-0.392-1.214-0.075c-0.356,0.313-0.391,0.858-0.077,1.215
		c0.633,0.717,1.596,2.053,0.943,2.963c-0.565,0.786-2.005,1.012-2.681,0.73c-1.36-0.499-2.552-0.444-3.543,0.158
		c-1.546,0.941-1.99,2.925-2.082,3.467c-3.649,0.673-6.416,3.865-6.416,7.71v9.28c0,4.334,3.511,7.849,7.845,7.849
		c4.333,0,7.848-3.515,7.848-7.849v-9.28c0-4.213-3.321-7.64-7.487-7.83C70.063,12.913,70.401,12.016,71.099,11.59z M71.035,18.377
		v2.582c0,0.82-0.664,1.484-1.484,1.484c-0.818,0-1.482-0.664-1.482-1.484v-2.582c0-0.819,0.664-1.484,1.482-1.484
		C70.371,16.893,71.035,17.558,71.035,18.377z"/>
	<g>
		<path fill="#FFFFFF" d="M18.661,56.474c0.633,0.604,1.633,1.119,2.619,1.119c1.089,0,1.825-0.59,1.825-1.487
			c0-2.295-5.019-1.78-5.019-5.019c0-1.751,1.472-2.885,3.4-2.885c1.029,0,2.134,0.34,2.899,1.061l-0.663,1.191
			c-0.574-0.529-1.471-0.911-2.295-0.911c-1.06,0-1.869,0.572-1.869,1.471c0,2.222,5.004,1.634,5.004,4.974
			c0,1.634-1.192,2.96-3.312,2.96c-1.251,0-2.517-0.486-3.415-1.369L18.661,56.474z"/>
		<path fill="#FFFFFF" d="M31.276,48.202c1.339,0,2.796,0.413,3.797,1.369l-0.736,1.09c-0.765-0.679-1.927-1.133-3.001-1.133
			c-2.414,0-3.841,1.78-3.841,3.972c0,2.209,1.457,4.106,3.87,4.106c1.163,0,2.354-0.515,3.194-1.354l0.779,1.046
			c-0.883,0.883-2.178,1.649-4.018,1.649c-3.223,0-5.327-2.385-5.327-5.432C25.993,50.499,28.186,48.202,31.276,48.202z"/>
		<path fill="#FFFFFF" d="M37.184,48.38h3.296c1.001,0,1.501,0.087,1.928,0.28c1.001,0.439,1.648,1.397,1.648,2.722
			s-0.721,2.472-1.854,2.854v0.03c0,0,0.117,0.146,0.294,0.47l2.207,4.032h-1.648l-2.193-4.136h-2.222v4.136h-1.457V48.38z
			 M40.73,53.368c1.133,0,1.854-0.766,1.854-1.913c0-0.75-0.324-1.354-0.972-1.634c-0.265-0.117-0.588-0.177-1.251-0.177h-1.721
			v3.724H40.73z"/>
		<path fill="#FFFFFF" d="M51.052,48.202c3.09,0,5.328,2.312,5.328,5.298c0,3.062-2.238,5.447-5.328,5.447
			c-3.091,0-5.342-2.385-5.342-5.447C45.709,50.514,47.961,48.202,51.052,48.202z M51.052,57.606c2.207,0,3.826-1.78,3.826-4.106
			c0-2.252-1.619-3.972-3.826-3.972c-2.223,0-3.841,1.72-3.841,3.972C47.211,55.826,48.829,57.606,51.052,57.606z"/>
		<path fill="#FFFFFF" d="M58.475,48.38h1.457v9.123h4.665v1.266h-6.122V48.38z"/>
		<path fill="#FFFFFF" d="M66.22,48.38h1.457v9.123h4.665v1.266H66.22V48.38z"/>
		<path fill="#FFFFFF" d="M77.234,48.38h3.458c3.164,0,5.254,1.899,5.254,5.181c0,3.296-2.09,5.208-5.254,5.208h-3.458V48.38z
			 M80.589,57.503c2.325,0,3.856-1.369,3.856-3.942c0-2.547-1.546-3.916-3.856-3.916H78.69v7.858H80.589z"/>
		<path fill="#FFFFFF" d="M92.781,48.202c3.09,0,5.327,2.312,5.327,5.298c0,3.062-2.237,5.447-5.327,5.447
			c-3.091,0-5.342-2.385-5.342-5.447C87.439,50.514,89.69,48.202,92.781,48.202z M92.781,57.606c2.207,0,3.826-1.78,3.826-4.106
			c0-2.252-1.619-3.972-3.826-3.972c-2.223,0-3.841,1.72-3.841,3.972C88.94,55.826,90.559,57.606,92.781,57.606z"/>
		<path fill="#FFFFFF" d="M99.13,48.38h1.531l1.811,7.622c0.132,0.561,0.205,1.104,0.205,1.104h0.03c0,0,0.088-0.529,0.234-1.104
			l2.047-7.622h1.279l2.03,7.622c0.148,0.575,0.236,1.104,0.236,1.104h0.03c0,0,0.059-0.544,0.19-1.104l1.928-7.622h1.501
			l-2.736,10.389h-1.664l-1.825-6.739c-0.177-0.678-0.309-1.457-0.309-1.457h-0.058c0,0-0.134,0.779-0.325,1.457l-1.809,6.739
			h-1.678L99.13,48.38z"/>
		<path fill="#FFFFFF" d="M113.928,48.38h1.442l4.636,6.739c0.368,0.575,0.854,1.516,0.854,1.516h0.028c0,0-0.088-0.926-0.088-1.516
			V48.38h1.442v10.389h-1.428l-4.636-6.739c-0.368-0.574-0.853-1.516-0.853-1.516h-0.03c0,0,0.087,0.927,0.087,1.516v6.739h-1.456
			V48.38z"/>
	</g>
	<polygon fill="#FFFFFF" points="77.023,70.803 75.432,69.208 70.041,74.598 64.649,69.208 63.056,70.803 70.041,77.787 	"/>
</g>
</svg>
